HIERARCHY
ROOT Hips
{
	OFFSET 0.000000 100.481300 0.000000
	CHANNELS 6 Xposition Yposition Zposition Xrotation Yrotation Zrotation
	JOINT Spine
	{
		OFFSET -0.279200 12.230698 -2.892100
		CHANNELS 3 Xrotation Yrotation Zrotation
		JOINT Spine1
		{
			OFFSET -0.325700 14.269203 -3.374200
			CHANNELS 3 Xrotation Yrotation Zrotation
			JOINT Spine2
			{
				OFFSET -0.372300 16.307602 -0.352600
				CHANNELS 3 Xrotation Yrotation Zrotation
				JOINT Neck
				{
					OFFSET -0.418800 17.814194 8.416900
					CHANNELS 3 Xrotation Yrotation Zrotation
					JOINT Head
					{
						OFFSET 0.000000 7.031097 3.806800
						CHANNELS 3 Xrotation Yrotation Zrotation
						JOINT HeadTop_End
						{
							OFFSET 0.000000 24.646606 12.978600
							CHANNELS 3 Xrotation Yrotation Zrotation
							End Site
							{
								OFFSET 0.000000 27.854965 0.000000
							}
						}
					}
				}
				JOINT LeftShoulder
				{
					OFFSET 16.952999 14.495407 -7.737500
					CHANNELS 3 Xrotation Yrotation Zrotation
					JOINT LeftArm
					{
						OFFSET 9.308998 -2.777710 0.208600
						CHANNELS 3 Xrotation Yrotation Zrotation
						JOINT LeftForeArm
						{
							OFFSET 29.972298 0.000000 0.000000
							CHANNELS 3 Xrotation Yrotation Zrotation
							JOINT LeftHand
							{
								OFFSET 26.026505 0.000000 0.000000
								CHANNELS 3 Xrotation Yrotation Zrotation
								JOINT LeftHandThumb1
								{
									OFFSET 12.240501 -7.147949 9.207150
									CHANNELS 3 Xrotation Yrotation Zrotation
									JOINT LeftHandThumb2
									{
										OFFSET 4.138618 -2.389435 2.389433
										CHANNELS 3 Xrotation Yrotation Zrotation
										JOINT LeftHandThumb3
										{
											OFFSET 2.726913 -1.574387 1.574386
											CHANNELS 3 Xrotation Yrotation Zrotation
											JOINT LeftHandThumb4
											{
												OFFSET 3.941010 -2.275345 2.275342
												CHANNELS 3 Xrotation Yrotation Zrotation
												End Site
												{
													OFFSET -0.005798 5.087799 0.009903
												}
											}
										}
									}
								}
								JOINT LeftHandIndex1
								{
									OFFSET 24.424698 -1.985611 5.953459
									CHANNELS 3 Xrotation Yrotation Zrotation
									JOINT LeftHandIndex2
									{
										OFFSET 6.426697 0.000000 0.000000
										CHANNELS 3 Xrotation Yrotation Zrotation
										JOINT LeftHandIndex3
										{
											OFFSET 5.337898 0.000000 0.000000
											CHANNELS 3 Xrotation Yrotation Zrotation
											JOINT LeftHandIndex4
											{
												OFFSET 4.409401 0.000000 0.000000
												CHANNELS 3 Xrotation Yrotation Zrotation
												End Site
												{
													OFFSET 0.000000 4.409363 0.014373
												}
											}
										}
									}
								}
								JOINT LeftHandMiddle1
								{
									OFFSET 23.810104 0.000000 0.000000
									CHANNELS 3 Xrotation Yrotation Zrotation
									JOINT LeftHandMiddle2
									{
										OFFSET 7.176498 0.000000 0.000000
										CHANNELS 3 Xrotation Yrotation Zrotation
										JOINT LeftHandMiddle3
										{
											OFFSET 6.774902 0.000000 0.000000
											CHANNELS 3 Xrotation Yrotation Zrotation
											JOINT LeftHandMiddle4
											{
												OFFSET 5.403328 0.000000 0.000000
												CHANNELS 3 Xrotation Yrotation Zrotation
												End Site
												{
													OFFSET -0.027702 5.403244 0.017414
												}
											}
										}
									}
								}
								JOINT LeftHandRing1
								{
									OFFSET 22.908401 -0.839279 -6.020567
									CHANNELS 3 Xrotation Yrotation Zrotation
									JOINT LeftHandRing2
									{
										OFFSET 6.337502 0.000000 0.000000
										CHANNELS 3 Xrotation Yrotation Zrotation
										JOINT LeftHandRing3
										{
											OFFSET 5.779297 0.000000 0.000000
											CHANNELS 3 Xrotation Yrotation Zrotation
											JOINT LeftHandRing4
											{
												OFFSET 4.965698 0.000000 0.000000
												CHANNELS 3 Xrotation Yrotation Zrotation
												End Site
												{
													OFFSET 0.000000 4.965668 0.016186
												}
											}
										}
									}
								}
								JOINT LeftHandPinky1
								{
									OFFSET 20.037003 -1.530319 -10.950146
									CHANNELS 3 Xrotation Yrotation Zrotation
									JOINT LeftHandPinky2
									{
										OFFSET 5.254700 0.000000 0.000000
										CHANNELS 3 Xrotation Yrotation Zrotation
										JOINT LeftHandPinky3
										{
											OFFSET 4.810204 0.000000 0.000000
											CHANNELS 3 Xrotation Yrotation Zrotation
											JOINT LeftHandPinky4
											{
												OFFSET 3.647202 0.000000 0.000000
												CHANNELS 3 Xrotation Yrotation Zrotation
												End Site
												{
													OFFSET 0.000000 3.647186 0.011889
												}
											}
										}
									}
								}
							}
						}
					}
				}
				JOINT RightShoulder
				{
					OFFSET -15.141001 14.495407 -7.737500
					CHANNELS 3 Xrotation Yrotation Zrotation
					JOINT RightArm
					{
						OFFSET -9.308998 -2.777710 0.208500
						CHANNELS 3 Xrotation Yrotation Zrotation
						JOINT RightForeArm
						{
							OFFSET -29.972300 0.000000 0.000000
							CHANNELS 3 Xrotation Yrotation Zrotation
							JOINT RightHand
							{
								OFFSET -26.026505 0.000000 0.000000
								CHANNELS 3 Xrotation Yrotation Zrotation
								JOINT RightHandThumb1
								{
									OFFSET -12.240601 -7.148026 9.207092
									CHANNELS 3 Xrotation Yrotation Zrotation
									JOINT RightHandThumb2
									{
										OFFSET -4.138618 -2.389435 2.389433
										CHANNELS 3 Xrotation Yrotation Zrotation
										JOINT RightHandThumb3
										{
											OFFSET -2.726974 -1.574417 1.574421
											CHANNELS 3 Xrotation Yrotation Zrotation
											JOINT RightHandThumb4
											{
												OFFSET -3.941010 -2.275345 2.275343
												CHANNELS 3 Xrotation Yrotation Zrotation
												End Site
												{
													OFFSET 0.005814 5.087799 0.009927
												}
											}
										}
									}
								}
								JOINT RightHandIndex1
								{
									OFFSET -24.424698 -1.985657 5.953444
									CHANNELS 3 Xrotation Yrotation Zrotation
									JOINT RightHandIndex2
									{
										OFFSET -6.426697 0.000000 0.000000
										CHANNELS 3 Xrotation Yrotation Zrotation
										JOINT RightHandIndex3
										{
											OFFSET -5.337898 0.000000 0.000000
											CHANNELS 3 Xrotation Yrotation Zrotation
											JOINT RightHandIndex4
											{
												OFFSET -4.409401 0.000000 0.000000
												CHANNELS 3 Xrotation Yrotation Zrotation
												End Site
												{
													OFFSET 0.000000 4.409363 0.014408
												}
											}
										}
									}
								}
								JOINT RightHandMiddle1
								{
									OFFSET -23.810097 0.000000 0.000000
									CHANNELS 3 Xrotation Yrotation Zrotation
									JOINT RightHandMiddle2
									{
										OFFSET -7.176498 0.000000 0.000000
										CHANNELS 3 Xrotation Yrotation Zrotation
										JOINT RightHandMiddle3
										{
											OFFSET -6.774902 0.000000 0.000000
											CHANNELS 3 Xrotation Yrotation Zrotation
											JOINT RightHandMiddle4
											{
												OFFSET -5.403328 0.000000 0.000000
												CHANNELS 3 Xrotation Yrotation Zrotation
												End Site
												{
													OFFSET 0.027702 5.403244 0.017457
												}
											}
										}
									}
								}
								JOINT RightHandRing1
								{
									OFFSET -22.908302 -0.839325 -6.020576
									CHANNELS 3 Xrotation Yrotation Zrotation
									JOINT RightHandRing2
									{
										OFFSET -6.337502 0.000000 0.000000
										CHANNELS 3 Xrotation Yrotation Zrotation
										JOINT RightHandRing3
										{
											OFFSET -5.779297 0.000000 0.000000
											CHANNELS 3 Xrotation Yrotation Zrotation
											JOINT RightHandRing4
											{
												OFFSET -4.965698 0.000000 0.000000
												CHANNELS 3 Xrotation Yrotation Zrotation
												End Site
												{
													OFFSET 0.000000 4.965668 0.016226
												}
											}
										}
									}
								}
								JOINT RightHandPinky1
								{
									OFFSET -20.037003 -1.530334 -10.950259
									CHANNELS 3 Xrotation Yrotation Zrotation
									JOINT RightHandPinky2
									{
										OFFSET -5.254700 0.000000 0.000000
										CHANNELS 3 Xrotation Yrotation Zrotation
										JOINT RightHandPinky3
										{
											OFFSET -4.810204 0.000000 0.000000
											CHANNELS 3 Xrotation Yrotation Zrotation
											JOINT RightHandPinky4
											{
												OFFSET -3.647202 0.000000 0.000000
												CHANNELS 3 Xrotation Yrotation Zrotation
												End Site
												{
													OFFSET 0.000000 3.647186 0.011917
												}
											}
										}
									}
								}
							}
						}
					}
				}
			}
		}
	}
	JOINT LeftUpLeg
	{
		OFFSET 15.427100 -6.655098 0.678600
		CHANNELS 3 Xrotation Yrotation Zrotation
		JOINT LeftLeg
		{
			OFFSET 4.081073 -39.591068 13.024000
			CHANNELS 3 Xrotation Yrotation Zrotation
			JOINT LeftFoot
			{
				OFFSET -4.081074 -37.707932 -15.979700
				CHANNELS 3 Xrotation Yrotation Zrotation
				JOINT LeftToeBase
				{
					OFFSET 5.346399 -15.068900 20.645000
					CHANNELS 3 Xrotation Yrotation Zrotation
					JOINT LeftToe_End
					{
						OFFSET 2.754700 0.931300 11.300900
						CHANNELS 3 Xrotation Yrotation Zrotation
						End Site
						{
							OFFSET 0.000000 11.669021 0.000000
						}
					}
				}
			}
		}
	}
	JOINT RightUpLeg
	{
		OFFSET -15.569500 -6.655098 0.678600
		CHANNELS 3 Xrotation Yrotation Zrotation
		JOINT RightLeg
		{
			OFFSET -4.081825 -39.591045 13.023800
			CHANNELS 3 Xrotation Yrotation Zrotation
			JOINT RightFoot
			{
				OFFSET 4.081824 -37.707954 -15.979600
				CHANNELS 3 Xrotation Yrotation Zrotation
				JOINT RightToeBase
				{
					OFFSET -5.346400 -15.068900 20.645000
					CHANNELS 3 Xrotation Yrotation Zrotation
					JOINT RightToe_End
					{
						OFFSET -2.754700 0.931300 11.300900
						CHANNELS 3 Xrotation Yrotation Zrotation
						End Site
						{
							OFFSET 0.000000 11.669021 0.000000
						}
					}
				}
			}
		}
	}
}
MOTION
Frames: 4
Frame Time: 0.033333
1.995533 94.696251 -0.783058 -0.892944 1.581808 -5.499872 1.300990 -1.198440 3.157634 0.728743 0.264195 5.944686 0.710789 0.781493 5.851998 1.045308 -0.304693 -2.163987 1.584931 0.544179 -8.140495 -0.000000 0.000000 -0.000000 3.582358 -13.764040 -5.044455 4.032784 3.514252 -83.678348 -0.000003 -14.506745 0.000018 -27.592515 3.698845 -9.416220 18.491277 -0.461435 10.916073 1.284055 32.757604 -3.088966 2.117132 9.311154 -0.358621 -0.000000 0.000001 -0.000000 0.339563 4.671347 -7.844257 0.387031 2.823578 -20.566220 0.034628 0.816833 -10.169814 0.000000 -0.000000 -0.000001 0.912583 8.769264 -15.831733 0.919074 3.991130 -33.400421 0.170570 1.488881 -12.264417 0.000000 0.000000 -0.000001 2.555815 11.673024 -26.909188 1.710654 3.886780 -40.215464 0.544857 1.835072 -19.344154 0.000000 -0.000000 -0.000000 5.576068 16.029166 -36.940624 1.378688 4.077647 -45.645621 0.486589 2.853390 -20.524730 0.000001 -0.000001 -0.000001 4.508128 3.324373 5.471577 -1.219627 0.655870 67.345392 -0.000000 17.736784 -0.000006 -11.193159 -9.123242 10.139285 18.491281 0.461436 -10.916072 1.284070 -32.757601 3.088949 2.008698 -8.430479 1.114705 -0.000000 -0.000001 0.000001 0.339563 -4.671355 7.844284 0.387030 -2.823579 20.566251 -0.193126 -0.216346 13.843929 -0.000000 -0.000000 -0.000002 0.912583 -8.769267 15.831742 0.919072 -3.991134 33.400428 0.216468 -1.688831 15.898051 0.000001 -0.000000 -0.000001 2.555814 -11.673027 26.909187 1.710652 -3.886787 40.215454 -0.157954 0.035276 17.815343 0.000001 -0.000000 -0.000000 5.576074 -16.029173 36.940644 1.378691 -4.077643 45.645625 -0.727748 -0.247556 22.122749 0.000000 -0.000000 0.000001 -17.238195 10.911671 17.843989 21.214335 8.460073 2.059285 -2.357486 4.173882 -10.926768 -0.441964 0.000002 -0.000002 -0.000000 0.000000 0.000000 1.142923 -4.294984 10.256092 10.306980 -4.635873 3.789102 -10.480756 0.530428 -7.625019 -0.548657 -0.000000 -0.000001 -0.000000 -0.000000 -0.000000 
2.077968 94.691963 -0.776272 -0.895488 1.577603 -5.443562 1.297056 -1.182838 3.121208 0.747789 0.280560 5.908811 0.734427 0.810976 5.820216 1.073697 -0.217053 -2.163973 1.649870 0.972386 -8.203059 -0.000000 -0.000000 -0.000000 3.585229 -13.763383 -5.032562 4.078334 3.480524 -83.665542 0.000000 -14.526786 0.000013 -27.561126 3.757684 -9.641955 18.491279 -0.461436 10.916043 1.284050 32.757611 -3.088970 2.117132 9.311158 -0.358605 -0.000000 0.000001 0.000000 0.339563 4.671358 -7.844292 0.387035 2.823580 -20.566217 0.034630 0.816836 -10.169815 0.000000 -0.000000 -0.000004 0.912636 8.769464 -15.831726 0.919074 3.991136 -33.400417 0.170575 1.488885 -12.264411 -0.000000 -0.000000 0.000000 2.555860 11.673121 -26.909205 1.710651 3.886786 -40.215464 0.544862 1.835071 -19.344153 0.000001 0.000001 0.000000 5.576146 16.029264 -36.940665 1.378682 4.077649 -45.645642 0.486598 2.853390 -20.524730 -0.000000 0.000000 0.000002 4.505091 3.348548 5.484557 -1.282011 0.681898 67.366292 0.000003 17.651719 -0.000022 -10.983259 -9.603913 9.785227 18.491289 0.461438 -10.916083 1.284085 -32.757598 3.088993 2.008703 -8.430469 1.114720 -0.000000 -0.000005 0.000001 0.339564 -4.671354 7.844268 0.387031 -2.823578 20.566227 -0.193126 -0.216348 13.843947 -0.000000 0.000000 -0.000001 0.912580 -8.769263 15.831718 0.919074 -3.991134 33.400424 0.216469 -1.688831 15.898061 0.000000 0.000000 -0.000001 2.555809 -11.673018 26.909187 1.710650 -3.886786 40.215474 -0.157956 0.035277 17.815338 0.000000 0.000000 -0.000000 5.576068 -16.029170 36.940631 1.378686 -4.077645 45.645587 -0.727749 -0.247556 22.122740 -0.000000 0.000000 0.000001 -17.204635 10.942218 17.718890 21.222769 8.440121 2.043351 -2.405095 4.197729 -10.849855 -0.443712 -0.000003 0.000002 0.000000 -0.000000 -0.000000 1.123436 -4.368664 10.126933 10.401032 -4.619997 3.790747 -10.541023 0.547950 -7.552380 -0.573432 -0.000003 -0.000001 0.000000 0.000001 0.000000 
2.163288 94.690979 -0.731192 -0.918864 1.544444 -5.388178 1.276101 -1.167733 3.085944 0.767811 0.272508 5.863588 0.768055 0.841153 5.786867 1.111151 -0.129551 -2.163959 1.689923 1.381470 -8.266359 -0.000000 -0.000000 0.000000 3.588097 -13.762715 -5.020680 4.185270 3.462016 -83.654641 0.000002 -14.634083 -0.000006 -27.561630 3.929035 -9.773244 18.491284 -0.461433 10.916058 1.284039 32.757611 -3.088937 2.117142 9.311144 -0.358599 0.000000 -0.000002 -0.000001 0.339566 4.671350 -7.844253 0.387033 2.823577 -20.566212 0.034623 0.816834 -10.169808 0.000001 -0.000000 -0.000001 0.912690 8.769666 -15.831713 0.919075 3.991132 -33.400411 0.170576 1.488888 -12.264417 -0.000000 -0.000000 0.000003 2.555900 11.673211 -26.909176 1.710653 3.886780 -40.215457 0.544862 1.835070 -19.344151 -0.000000 -0.000001 -0.000000 5.576214 16.029346 -36.940644 1.378683 4.077648 -45.645621 0.486598 2.853389 -20.524727 0.000000 0.000000 -0.000002 4.501155 3.368321 5.471193 -1.467055 0.809914 67.430325 -0.000001 17.504820 -0.000006 -10.781342 -10.111976 9.417988 18.491279 0.461435 -10.916079 1.284089 -32.757604 3.088981 2.008695 -8.430470 1.114717 -0.000001 -0.000003 0.000001 0.339564 -4.671354 7.844261 0.387030 -2.823578 20.566229 -0.193125 -0.216348 13.843960 0.000000 0.000000 -0.000003 0.912582 -8.769266 15.831747 0.919075 -3.991134 33.400431 0.216467 -1.688831 15.898058 0.000001 0.000000 0.000001 2.555810 -11.673009 26.909233 1.710653 -3.886784 40.215488 -0.157955 0.035277 17.815338 0.000000 0.000000 0.000000 5.576075 -16.029175 36.940621 1.378688 -4.077637 45.645587 -0.727747 -0.247558 22.122742 0.000001 -0.000000 -0.000000 -17.104341 10.966985 17.615121 21.221244 8.430309 2.009250 -2.478938 4.212005 -10.792916 -0.461412 -0.000002 -0.000002 0.000000 0.000000 0.000000 1.133021 -4.409505 10.013117 10.479865 -4.557789 3.777247 -10.595836 0.561575 -7.487399 -0.570138 0.000003 0.000000 0.000000 0.000000 -0.000000 
2.254849 94.686150 -0.650229 -0.956882 1.537104 -5.312869 1.238819 -1.162833 3.045513 0.791164 0.219681 5.803983 0.813894 0.850391 5.746496 1.154484 -0.039685 -2.163942 1.680369 1.758287 -8.320377 -0.000000 -0.000000 -0.000000 3.584639 -13.750746 -5.040166 4.355107 3.441226 -83.595198 -0.000003 -14.783345 -0.000006 -27.692252 4.121882 -9.846438 18.491277 -0.461437 10.916040 1.284040 32.757604 -3.088950 2.117145 9.311144 -0.358595 0.000000 0.000004 0.000000 0.339564 4.671358 -7.844296 0.387033 2.823575 -20.566217 0.034635 0.816837 -10.169826 0.000001 0.000000 -0.000000 0.912751 8.769868 -15.831716 0.919078 3.991132 -33.400424 0.170575 1.488883 -12.264410 -0.000000 0.000001 0.000002 2.555945 11.673303 -26.909226 1.710652 3.886785 -40.215450 0.544858 1.835068 -19.344158 0.000001 -0.000000 0.000000 5.576285 16.029447 -36.940655 1.378694 4.077648 -45.645645 0.486583 2.853388 -20.524729 -0.000001 -0.000000 0.000001 4.488089 3.341919 5.362274 -1.769229 0.901667 67.608006 -0.000005 17.475048 0.000024 -10.736540 -10.548857 8.938867 18.491281 0.461440 -10.916058 1.284090 -32.757611 3.088996 2.008691 -8.430471 1.114687 0.000001 0.000002 -0.000001 0.339565 -4.671355 7.844278 0.387029 -2.823580 20.566219 -0.193125 -0.216346 13.843931 0.000001 0.000000 -0.000003 0.912582 -8.769266 15.831769 0.919075 -3.991136 33.400431 0.216470 -1.688830 15.898056 0.000000 0.000000 0.000002 2.555810 -11.673005 26.909253 1.710653 -3.886784 40.215488 -0.157954 0.035279 17.815331 -0.000000 -0.000000 -0.000000 5.576077 -16.029173 36.940655 1.378683 -4.077640 45.645536 -0.727745 -0.247557 22.122747 0.000002 -0.000000 -0.000000 -16.965587 11.003912 17.489642 21.221577 8.412513 1.964193 -2.582778 4.195519 -10.728037 -0.484152 0.000020 -0.000003 -0.000000 0.000002 -0.000000 1.176725 -4.453402 9.883916 10.579800 -4.492617 3.746078 -10.692572 0.573855 -7.404243 -0.519421 -0.000003 -0.000002 0.000000 0.000000 -0.000000 
